<svg xmlns="http://www.w3.org/2000/svg" width="97.923" height="40" viewBox="0 0 97.923 40"><defs><style>.a{fill:#0aa8e0;}</style></defs><g transform="translate(0.081 42.213)"><path class="a" d="M7.747,35.792A19.987,19.987,0,0,0,33.2,35.033c.039-.039.019-.058-.019-.039C31.6,36.045,27.1,38.352,20.019,38.352c-6.16,0-10.043-1.372-12.243-2.6-.049-.01-.068.019-.029.039m13.625,1.032c4.924,0,10.335-1.343,13.576-4a10.646,10.646,0,0,0,2.482-2.978,17.934,17.934,0,0,0,1.207-2.5c.019-.039-.01-.058-.039-.01-3.007,4.428-11.727,7.192-20.719,7.192C11.513,34.527,4.671,32.493,2,28.61c-.029-.039-.049-.019-.039.019,2.482,5.294,10.063,8.185,19.415,8.194M15.99,28.017C5.752,28.017.915,23.248.039,19.988.029,19.949,0,19.959,0,20a20.533,20.533,0,0,0,.3,3.455,3.986,3.986,0,0,0,1,1.742C3.786,27.783,9.965,31.4,20.671,31.4c14.588,0,17.926-4.856,18.607-6.462A14.7,14.7,0,0,0,40.018,20c0-.418-.01-.759-.029-1.08,0-.058-.029-.058-.039-.01-.73,3.912-13.187,9.109-23.96,9.109M1.937,11.414A20.228,20.228,0,0,0,.506,15.56a1.3,1.3,0,0,0,.107.973c1.226,2.608,7.435,6.773,21.916,6.773,8.837,0,15.7-2.17,16.817-6.131a4.712,4.712,0,0,0-.049-2.54,19.4,19.4,0,0,0-1.314-3.465c-.019-.029-.039-.029-.039.01.175,5.2-14.316,8.545-21.624,8.545-7.922,0-14.53-3.153-14.53-7.143a4.708,4.708,0,0,1,.175-1.168c.019-.019-.019-.029-.029,0M33.225,5.04a.864.864,0,0,1,.127.467c0,2.219-6.8,6.151-17.624,6.151-7.951,0-9.44-2.949-9.44-4.827a3.243,3.243,0,0,1,.827-2.053c.029-.039,0-.058-.029-.029A19.6,19.6,0,0,0,4.263,7.677,2.56,2.56,0,0,0,3.62,8.893c0,3.893,9.751,6.705,18.87,6.705,9.722,0,14.053-3.173,14.053-5.956,0-.993-.389-1.577-1.382-2.705a23.512,23.512,0,0,0-1.9-1.917c-.039-.029-.058-.01-.039.019M30.247,2.821A19.992,19.992,0,0,0,9.635,2.9c-.9.555-1.411,1-1.411,1.577,0,1.684,3.941,3.5,10.939,3.5,6.919,0,12.291-1.985,12.291-3.9,0-.457-.4-.779-1.207-1.255" transform="translate(-0.081 -42.211)"/><path d="M25.214,33.39a2.875,2.875,0,0,1-1.08-1.158,3.609,3.609,0,0,1-.38-1.684,3.691,3.691,0,0,1,.4-1.732,2.9,2.9,0,0,1,1.051-1.158,2.7,2.7,0,0,1,1.45-.408,2.638,2.638,0,0,1,1.421.379,2.51,2.51,0,0,1,.933,1.05,3.336,3.336,0,0,1,.332,1.509c0,.224-.01.457-.03.681H24.691a2.4,2.4,0,0,0,.7,1.548,2.157,2.157,0,0,0,1.546.574,4.408,4.408,0,0,0,1-.107,4.206,4.206,0,0,0,.914-.389l.3.71a4.049,4.049,0,0,1-1.06.467,4.731,4.731,0,0,1-1.226.146A3.147,3.147,0,0,1,25.214,33.39Zm.137-4.8a2.513,2.513,0,0,0-.653,1.47h3.7V30a2.32,2.32,0,0,0-.223-1.012,1.662,1.662,0,0,0-.613-.7,1.825,1.825,0,0,0-2.209.3ZM9.595,33.39a2.876,2.876,0,0,1-1.08-1.158,3.609,3.609,0,0,1-.38-1.684,3.69,3.69,0,0,1,.4-1.732,2.9,2.9,0,0,1,1.051-1.158,2.7,2.7,0,0,1,1.451-.408,2.638,2.638,0,0,1,1.421.379,2.511,2.511,0,0,1,.933,1.05,3.336,3.336,0,0,1,.332,1.509c0,.224-.01.457-.03.681H9.071a2.4,2.4,0,0,0,.7,1.548,2.157,2.157,0,0,0,1.546.574,4.408,4.408,0,0,0,1-.107,4.206,4.206,0,0,0,.914-.389l.3.71a4.067,4.067,0,0,1-1.06.467,4.731,4.731,0,0,1-1.226.146A3.147,3.147,0,0,1,9.595,33.39Zm.136-4.8a2.52,2.52,0,0,0-.652,1.47h3.7V30a2.32,2.32,0,0,0-.223-1.012,1.671,1.671,0,0,0-.613-.7,1.827,1.827,0,0,0-2.21.3Zm5.654,4.73a1.755,1.755,0,0,1-.525-1.353,1.819,1.819,0,0,1,.574-1.44,2.346,2.346,0,0,1,1.615-.505h1.928v-.205a1.836,1.836,0,0,0-.389-1.3,1.567,1.567,0,0,0-1.207-.419,3.915,3.915,0,0,0-1.938.536l-.3-.73a5.74,5.74,0,0,1,1.177-.5,4.408,4.408,0,0,1,1.207-.155,2.319,2.319,0,0,1,1.762.632,2.637,2.637,0,0,1,.594,1.878V33.7H19.1l-.1-.71a3.242,3.242,0,0,1-2.17.816A2.075,2.075,0,0,1,15.385,33.323Zm.39-1.372a.927.927,0,0,0,.331.759,1.541,1.541,0,0,0,.954.273,2.564,2.564,0,0,0,1-.214,3.39,3.39,0,0,0,.915-.564V30.782H17.224C16.261,30.782,15.775,31.173,15.775,31.95Zm14.977,1.742V27.377h.779l.1.769a3.023,3.023,0,0,1,2.122-.9,2.552,2.552,0,0,1,.516.057l-.127.876a3.839,3.839,0,0,0-.574-.048,2.92,2.92,0,0,0-1.9.768v4.8Zm-9.352,0V24.564h.915v9.128Zm-21.293,0V25.177H2.773a4.576,4.576,0,0,1,2.249.525,3.513,3.513,0,0,1,1.449,1.489,5.215,5.215,0,0,1-.019,4.526,3.565,3.565,0,0,1-1.469,1.47,4.58,4.58,0,0,1-2.21.506Zm.964-.886H2.764a3.141,3.141,0,0,0,2.375-.885A3.506,3.506,0,0,0,6,29.43a3.422,3.422,0,0,0-.857-2.483,3.128,3.128,0,0,0-2.375-.885H1.071Zm38.06-11a2.886,2.886,0,0,1-1.08-1.158,3.611,3.611,0,0,1-.38-1.684,3.687,3.687,0,0,1,.4-1.732,2.892,2.892,0,0,1,1.051-1.159,2.7,2.7,0,0,1,1.45-.408,2.62,2.62,0,0,1,1.421.38,2.52,2.52,0,0,1,.935,1.05,3.347,3.347,0,0,1,.331,1.509c0,.224-.01.457-.03.682H38.607a2.394,2.394,0,0,0,.7,1.546,2.15,2.15,0,0,0,1.546.574,4.461,4.461,0,0,0,1-.106,4.11,4.11,0,0,0,.914-.39l.3.711a4.025,4.025,0,0,1-1.06.468,4.716,4.716,0,0,1-1.226.145A3.15,3.15,0,0,1,39.131,21.81Zm.137-4.8a2.5,2.5,0,0,0-.652,1.47h3.7v-.059a2.321,2.321,0,0,0-.224-1.013,1.669,1.669,0,0,0-.613-.7,1.82,1.82,0,0,0-2.209.3Zm-15.961,4.8a2.889,2.889,0,0,1-1.081-1.158,3.612,3.612,0,0,1-.378-1.684,3.7,3.7,0,0,1,.4-1.732A2.891,2.891,0,0,1,23.3,16.078a2.7,2.7,0,0,1,1.45-.408,2.62,2.62,0,0,1,1.421.38A2.519,2.519,0,0,1,27.1,17.1a3.33,3.33,0,0,1,.331,1.509c0,.224-.009.457-.028.682H22.783a2.394,2.394,0,0,0,.7,1.546,2.155,2.155,0,0,0,1.548.574,4.448,4.448,0,0,0,1-.106,4.117,4.117,0,0,0,.915-.39l.3.711a4.025,4.025,0,0,1-1.06.468,4.715,4.715,0,0,1-1.226.145A3.142,3.142,0,0,1,23.308,21.81Zm.136-4.8a2.51,2.51,0,0,0-.652,1.47h3.7v-.059a2.3,2.3,0,0,0-.224-1.013,1.66,1.66,0,0,0-.613-.7,1.82,1.82,0,0,0-2.209.3Zm-10.822,4.8a2.885,2.885,0,0,1-1.08-1.158,3.612,3.612,0,0,1-.38-1.684,3.686,3.686,0,0,1,.4-1.732,2.892,2.892,0,0,1,1.051-1.159,2.7,2.7,0,0,1,1.449-.408,2.625,2.625,0,0,1,1.422.38,2.508,2.508,0,0,1,.933,1.05,3.331,3.331,0,0,1,.332,1.509c0,.224-.01.457-.03.682H12.1a2.392,2.392,0,0,0,.7,1.546,2.155,2.155,0,0,0,1.548.574,4.44,4.44,0,0,0,1-.106,4.091,4.091,0,0,0,.915-.39l.3.711a4.044,4.044,0,0,1-1.06.468,4.722,4.722,0,0,1-1.226.145A3.15,3.15,0,0,1,12.621,21.81Zm.136-4.8a2.511,2.511,0,0,0-.652,1.47h3.7v-.059a2.32,2.32,0,0,0-.223-1.013,1.678,1.678,0,0,0-.613-.7,1.822,1.822,0,0,0-2.21.3ZM45.672,21.8a2.719,2.719,0,0,1-.915-1.158,4.164,4.164,0,0,1-.322-1.684,3.943,3.943,0,0,1,.371-1.74,2.716,2.716,0,0,1,1-1.159,2.609,2.609,0,0,1,1.44-.4,3.147,3.147,0,0,1,1.889.633V12.983h.9v9.128h-.779l-.087-.662a3.423,3.423,0,0,1-.993.6,3.239,3.239,0,0,1-1.11.175A2.374,2.374,0,0,1,45.672,21.8Zm.233-4.662a2.76,2.76,0,0,0-.555,1.811,2.815,2.815,0,0,0,.525,1.781,1.714,1.714,0,0,0,1.4.681,2.581,2.581,0,0,0,.944-.174,3.37,3.37,0,0,0,.9-.564v-3.5a2.947,2.947,0,0,0-.827-.516,2.333,2.333,0,0,0-.9-.185A1.832,1.832,0,0,0,45.905,17.138ZM33.614,22.111V15.8h.778l.1.769a3.028,3.028,0,0,1,2.122-.9,2.458,2.458,0,0,1,.516.059L37,16.593a3.647,3.647,0,0,0-.574-.049,2.923,2.923,0,0,0-1.9.77v4.8Zm-4.769,0V15.8h.778l.1.769a3.025,3.025,0,0,1,2.121-.9,2.457,2.457,0,0,1,.516.059l-.126.876a3.675,3.675,0,0,0-.574-.049,2.923,2.923,0,0,0-1.9.77v4.8Zm-21.645,0V15.8H7.98l.1.769a3.028,3.028,0,0,1,2.122-.9,2.468,2.468,0,0,1,.516.059l-.127.876a3.66,3.66,0,0,0-.574-.049,2.922,2.922,0,0,0-1.9.77v4.8Zm-7.084,0V13.586H2.822a3.2,3.2,0,0,1,2.219.711,2.476,2.476,0,0,1,.788,1.947,2.552,2.552,0,0,1-.808,1.985,3.14,3.14,0,0,1-2.2.729H1.08v3.154Zm.963-4.048H2.773A2.212,2.212,0,0,0,4.3,17.587a1.711,1.711,0,0,0,.546-1.343,1.621,1.621,0,0,0-.535-1.3,2.267,2.267,0,0,0-1.539-.468H1.08ZM18.47,22.1V16.574H17.293v-.788H18.47v-.565a2.522,2.522,0,0,1,.565-1.742,1.962,1.962,0,0,1,1.548-.632,2.652,2.652,0,0,1,1.2.281l-.185.721a2.591,2.591,0,0,0-.933-.185,1.135,1.135,0,0,0-.935.4,1.8,1.8,0,0,0-.331,1.148v.574H21.38v.788H19.4V22.1ZM16.972,9.48a2.4,2.4,0,0,1-.836-1.908A2.549,2.549,0,0,1,16.69,6,4.843,4.843,0,0,1,18.325,4.7a5.948,5.948,0,0,1-.954-1.246,2.378,2.378,0,0,1-.263-1.1,2.124,2.124,0,0,1,.769-1.7A2.958,2.958,0,0,1,19.862,0,2.943,2.943,0,0,1,21.8.6a2,2,0,0,1,.73,1.606c0,.954-.73,1.82-2.2,2.608l1.83,1.938a9.729,9.729,0,0,0,.564-.935L23.3,4.73h1.47L23.93,6.259a14.551,14.551,0,0,1-.846,1.382l2.327,2.384H23.522L22.237,8.711a4.394,4.394,0,0,1-1.382,1.109,3.439,3.439,0,0,1-1.664.38A3.289,3.289,0,0,1,16.972,9.48Zm1.051-3.017a1.588,1.588,0,0,0-.35.993,1.381,1.381,0,0,0,.458,1.07,1.829,1.829,0,0,0,1.246.408,2.481,2.481,0,0,0,1.975-1.041L19.1,5.547A3.915,3.915,0,0,0,18.023,6.462Zm.9-4.934a.981.981,0,0,0-.36.8,1.4,1.4,0,0,0,.194.711,6.365,6.365,0,0,0,.808.992,5.034,5.034,0,0,0,1.178-.885A1.262,1.262,0,0,0,21.1,2.3a.994.994,0,0,0-.332-.779,1.3,1.3,0,0,0-.885-.292A1.459,1.459,0,0,0,18.919,1.529ZM27.2,10.043v-8.4H24.076V.166h7.863V1.645H28.826v8.4Zm-16.125,0v-8.4H7.951V.166h7.863V1.645H12.7v8.4Zm-3.718,0L6.54,7.688H2.5l-.808,2.355H0L3.727.166H5.361l3.728,9.877ZM3,6.278H6.062L4.525,1.829Z" transform="translate(47.8 -39.371)"/></g></svg>